<svg width="62" height="44" viewBox="0 0 62 44" fill="none" xmlns="http://www.w3.org/2000/svg">
<path d="M50.3151 15.0633C48.0421 6.26096 40.1152 0 31 0C21.8848 0 13.958 6.26108 11.6848 15.0633C4.93929 16.4635 0 22.3852 0 29.3333C0 37.4205 6.57297 44 14.6523 44H29.1836H31H32.8164H47.3477C55.427 44 62 37.4205 62 29.3333C62 22.3852 57.0607 16.4635 50.3151 15.0633Z" fill="#2B5BFC"/>
<path d="M29.7138 32.6374C30.0683 32.9955 30.5332 33.1745 30.9981 33.1745C31.463 33.1745 31.9279 32.9955 32.2824 32.6374L35.9152 28.9708C36.6246 28.2548 36.6246 27.094 35.9152 26.3781C35.206 25.6621 34.0558 25.6621 33.3465 26.3781L32.8145 26.9151V20.3411C32.8145 19.3287 32.0012 18.5078 30.9981 18.5078C29.995 18.5078 29.1817 19.3287 29.1817 20.3411V26.9151L28.6496 26.3781C27.9404 25.6621 26.7902 25.6621 26.0809 26.3781C25.3715 27.094 25.3715 28.2548 26.0809 28.9708L29.7138 32.6374Z" fill="white"/>
</svg>
