<svg width="62" height="44" viewBox="0 0 62 44" fill="none" xmlns="http://www.w3.org/2000/svg">
<path d="M50.3151 15.0633C48.0421 6.26096 40.1152 0 31 0C21.8848 0 13.958 6.26108 11.6848 15.0633C4.93929 16.4635 0 22.3852 0 29.3333C0 37.4205 6.57297 44 14.6523 44H29.1836H31H32.8164H47.3477C55.427 44 62 37.4205 62 29.3333C62 22.3852 57.0607 16.4635 50.3151 15.0633Z" fill="#4422EF"/>
<path d="M29.7138 32.6384C30.0683 32.9965 30.5332 33.1755 30.9981 33.1755C31.463 33.1755 31.9279 32.9965 32.2824 32.6384L35.9152 28.9717C36.6246 28.2558 36.6246 27.095 35.9152 26.379C35.206 25.6631 34.0558 25.6631 33.3465 26.379L32.8145 26.9161V20.3421C32.8145 19.3296 32.0012 18.5088 30.9981 18.5088C29.995 18.5088 29.1817 19.3296 29.1817 20.3421V26.9161L28.6496 26.379C27.9404 25.6631 26.7902 25.6631 26.0809 26.379C25.3715 27.095 25.3715 28.2558 26.0809 28.9717L29.7138 32.6384Z" fill="white"/>
</svg>
