<svg width="186" height="40" viewBox="0 0 186 40" fill="currentColor" xmlns="http://www.w3.org/2000/svg">
<path d="M0 28.6093V11.5762H3.22295L3.42597 28.6093H0ZM15.5565 28.6093L15.7341 11.5762H18.957V28.6093H15.5565ZM10.7093 28.6093H8.24771L4.51721 19.2661L2.00483 11.5762H4.54259L8.90753 22.5726L9.74499 25.378H9.33895L10.2018 22.5726L14.5414 11.5762H16.9268L14.4145 19.3162L10.7093 28.6093Z" fill="#141416"/>
<path d="M25.1202 25.0774V22.4724H33.571V25.0774H25.1202ZM34.383 28.6093L29.8912 16.636L29.2568 14.4568H29.5106L28.8761 16.636L24.3843 28.6093H20.9583L27.455 11.5762H31.49L37.9867 28.6093H34.383Z" fill="#141416"/>
<path d="M69.6713 28.6093V11.5762H73.0973V28.6093H69.6713Z" fill="#141416"/>
<path d="M76.4866 28.6093V11.5762H79.7096L79.9126 28.6093H76.4866ZM92.0431 28.6093L92.2207 11.5762H95.4436V28.6093H92.0431ZM87.1959 28.6093H84.7343L81.0038 19.2661L78.4914 11.5762H81.0292L85.3941 22.5726L86.2316 25.378H85.8256L86.6884 22.5726L91.028 11.5762H93.4134L90.9011 19.3162L87.1959 28.6093Z" fill="#141416"/>
<path d="M113.052 22.1217C113.052 23.5411 112.756 24.7602 112.164 25.7788C111.589 26.7975 110.768 27.5907 109.702 28.1584C108.636 28.7095 107.359 28.985 105.87 28.985C104.381 28.985 103.096 28.7095 102.013 28.1584C100.947 27.5907 100.126 26.7975 99.5512 25.7788C98.976 24.7602 98.6884 23.5411 98.6884 22.1217V11.5762H102.114V22.1217C102.114 23.4075 102.444 24.4178 103.104 25.1526C103.764 25.8874 104.686 26.2547 105.87 26.2547C107.071 26.2547 108.002 25.8874 108.662 25.1526C109.322 24.4178 109.652 23.4075 109.652 22.1217V11.5762H113.052V22.1217Z" fill="#141416"/>
<path d="M116.306 28.6093V11.6431H119.516L119.718 28.6093H116.306ZM131.801 28.6093L131.978 11.6431H135.188V28.6093H131.801ZM126.973 28.6093H124.521L120.805 19.3028L118.303 11.6431H120.831L125.178 22.5963L126.013 25.3907H125.608L126.468 22.5963L130.79 11.6431H133.166L130.664 19.3527L126.973 28.6093Z" fill="#141416"/>
<path d="M138.579 28.6093V11.5762H142.005V28.6093H138.579ZM141.066 28.6093V25.879H149.999V28.6093H141.066Z" fill="#141416"/>
<path d="M152.383 28.6093V11.5762H155.809V28.6093H152.383Z" fill="#141416"/>
<path d="M159.198 28.6093V11.5762H162.624V28.6093H159.198ZM161.685 14.2564V11.5762H171.329V14.2564H161.685ZM161.685 21.746V19.0657H170.364V21.746H161.685Z" fill="#141416"/>
<path d="M173.87 28.6093V11.5762H177.295V28.6093H173.87ZM176.357 28.6093V25.9291H186V28.6093H176.357ZM176.357 14.2564V11.5762H186V14.2564H176.357ZM176.357 21.1698V18.5147H185.036V21.1698H176.357Z" fill="#141416"/>
<path d="M49.908 19.998L39.2344 11.48H45.3264L53.2383 17.8424L65.4051 7.42287C73.3055 0.66263 85.3356 -0.474585 93.0082 0.148586C100.681 0.771757 115.638 2.95083 115.638 2.95083V6.49182C115.638 6.49182 96.8173 3.93141 87.7658 3.93141C78.7143 3.93141 72.2452 7.20001 67.682 10.8752L56.3981 19.9632L56.4411 19.998H49.908Z" fill="url(#paint0_linear_2007_11499)"/>
<path d="M49.908 20.002L39.2344 28.52H45.3264L53.2383 22.1576L65.4051 32.5771C73.3055 39.3374 85.3356 40.4746 93.0082 39.8514C100.681 39.2282 115.638 37.0492 115.638 37.0492V33.5082C115.638 33.5082 96.8173 36.0686 87.7658 36.0686C78.7143 36.0686 72.2452 32.8 67.682 29.1248L56.3981 20.0368L56.4411 20.002H49.908Z" fill="url(#paint1_linear_2007_11499)"/>
<defs>
<linearGradient id="paint0_linear_2007_11499" x1="51.1183" y1="20.3245" x2="117.073" y2="20.5482" gradientUnits="userSpaceOnUse">
<stop stop-color="#404CD1"/>
<stop offset="1" stop-color="white" stop-opacity="0"/>
</linearGradient>
<linearGradient id="paint1_linear_2007_11499" x1="51.1183" y1="19.6755" x2="117.073" y2="19.4518" gradientUnits="userSpaceOnUse">
<stop stop-color="#404CD1"/>
<stop offset="1" stop-color="white" stop-opacity="0"/>
</linearGradient>
</defs>
</svg>
