<svg width="28" height="28" viewBox="0 0 28 28" fill="none" xmlns="http://www.w3.org/2000/svg">
<g filter="url(#filter0_f_2125_11088)">
<circle cx="14" cy="14" r="10" fill="#4422EF"/>
</g>
<circle cx="14" cy="14" r="10" fill="#4422EF"/>
<path d="M18.5144 15.045C18.4999 14.9979 18.4762 14.9541 18.4448 14.9161C18.4133 14.8782 18.3747 14.8468 18.3311 14.8238C18.2875 14.8007 18.2398 14.7865 18.1907 14.7819C18.1416 14.7774 18.0921 14.7825 18.045 14.7971C17.3739 14.9816 16.6659 14.9849 15.993 14.8068C15.3202 14.6287 14.7065 14.2754 14.2146 13.7831C13.7226 13.2907 13.3699 12.6768 13.1924 12.0038C13.0149 11.3308 13.0188 10.6228 13.2038 9.9518C13.2233 9.88692 13.2248 9.81799 13.2082 9.75232C13.1917 9.68665 13.1576 9.62669 13.1097 9.57881C13.0618 9.53092 13.0018 9.4969 12.9362 9.48036C12.8705 9.46381 12.8016 9.46536 12.7367 9.48483C11.9484 9.70554 11.2316 10.1288 10.6577 10.7125C10.0838 11.2962 9.6727 12.0201 9.46536 12.812C9.25803 13.6039 9.26167 14.4363 9.47591 15.2264C9.69016 16.0165 10.1076 16.7367 10.6866 17.3153C11.2656 17.894 11.986 18.311 12.7762 18.5248C13.5664 18.7386 14.3988 18.7418 15.1906 18.534C15.9824 18.3262 16.706 17.9147 17.2894 17.3405C17.8728 16.7662 18.2956 16.0492 18.5159 15.2608C18.5366 15.1903 18.536 15.1153 18.5144 15.045Z" fill="white"/>
<defs>
<filter id="filter0_f_2125_11088" x="0" y="0" width="28" height="28" filterUnits="userSpaceOnUse" color-interpolation-filters="sRGB">
<feFlood flood-opacity="0" result="BackgroundImageFix"/>
<feBlend mode="normal" in="SourceGraphic" in2="BackgroundImageFix" result="shape"/>
<feGaussianBlur stdDeviation="2" result="effect1_foregroundBlur_2125_11088"/>
</filter>
</defs>
</svg>
