<!DOCTYPE svg PUBLIC "-//W3C//DTD SVG 1.1//EN" "http://www.w3.org/Graphics/SVG/1.1/DTD/svg11.dtd">
<!-- Uploaded to: SVG Repo, www.svgrepo.com, Transformed by: SVG Repo Mixer Tools -->
<svg fill="#808080" width="800px" height="800px" viewBox="0 0 24 24" xmlns="http://www.w3.org/2000/svg" enable-background="new 0 0 24 24" transform="matrix(-1, 0, 0, 1, 0, 0)">
<g id="SVGRepo_bgCarrier" stroke-width="0"/>
<g id="SVGRepo_tracerCarrier" stroke-linecap="round" stroke-linejoin="round"/>
<g id="SVGRepo_iconCarrier">
<path d="M9.9,17.2c-0.6,0-1-0.4-1-1c0-0.3,0.1-0.5,0.3-0.7l3.5-3.5L9.2,8.5c-0.4-0.4-0.4-1,0-1.4c0.4-0.4,1-0.4,1.4,0l4.2,4.2c0.4,0.4,0.4,1,0,1.4c0,0,0,0,0,0l-4.2,4.2C10.4,17.1,10.1,17.2,9.9,17.2z"/>
</g>
</svg>