<svg width="26" height="26" viewBox="0 0 26 26" fill="none" xmlns="http://www.w3.org/2000/svg">
<path d="M12.0196 4.91016C8.7096 4.91016 6.0196 7.60016 6.0196 10.9102V13.8002C6.0196 14.4102 5.7596 15.3402 5.4496 15.8602L4.2996 17.7702C3.5896 18.9502 4.0796 20.2602 5.3796 20.7002C9.6896 22.1402 14.3396 22.1402 18.6496 20.7002C19.8596 20.3002 20.3896 18.8702 19.7296 17.7702L18.5796 15.8602C18.2796 15.3402 18.0196 14.4102 18.0196 13.8002V10.9102C18.0196 9.85617 17.7442 8.8634 17.2617 8.00024C16.7292 7.0475 15.9445 6.25269 14.9996 5.70782C14.1203 5.20076 13.1022 4.91016 12.0196 4.91016Z" stroke="#2E2F32" stroke-width="1.2" stroke-miterlimit="10" stroke-linecap="round"/>
<path d="M13.87 5.19945C13.56 5.10945 13.24 5.03945 12.91 4.99945C11.95 4.87945 11.03 4.94945 10.17 5.19945C10.46 4.45945 11.18 3.93945 12.02 3.93945C12.86 3.93945 13.58 4.45945 13.87 5.19945Z" stroke="#2E2F32" stroke-width="1.5" stroke-miterlimit="10" stroke-linecap="round" stroke-linejoin="round"/>
<path d="M15.0195 21.0605C15.0195 22.7105 13.6695 24.0605 12.0195 24.0605C11.1995 24.0605 10.4395 23.7205 9.89953 23.1805C9.35953 22.6405 9.01953 21.8805 9.01953 21.0605" stroke="#2E2F32" stroke-width="1.2" stroke-miterlimit="10"/>
<circle cx="20" cy="6" r="6" fill="#E83F5D"/>
<path d="M18.7039 9.5V8.74085H19.7039V3.60423L18.7136 4.20563L18.5 3.49577L20.1796 2.5H20.4709V8.74085H21.5V9.5H18.7039Z" fill="white"/>
</svg>
