<svg width="26" height="26" viewBox="0 0 26 26" fill="none" xmlns="http://www.w3.org/2000/svg">
<path d="M12.0196 4.90991C8.7096 4.90991 6.0196 7.59991 6.0196 10.9099V13.7999C6.0196 14.4099 5.7596 15.3399 5.4496 15.8599L4.2996 17.7699C3.5896 18.9499 4.0796 20.2599 5.3796 20.6999C9.6896 22.1399 14.3396 22.1399 18.6496 20.6999C19.8596 20.2999 20.3896 18.8699 19.7296 17.7699L18.5796 15.8599C18.2796 15.3399 18.0196 14.4099 18.0196 13.7999V10.9099C18.0196 9.85593 17.7442 8.86315 17.2617 8C16.7292 7.04726 15.9445 6.25245 14.9996 5.70758C14.1203 5.20052 13.1022 4.90991 12.0196 4.90991Z" stroke="white" stroke-width="1.2" stroke-miterlimit="10" stroke-linecap="round"/>
<path d="M13.8699 5.19994C13.5599 5.10994 13.2399 5.03994 12.9099 4.99994C11.9499 4.87994 11.0299 4.94994 10.1699 5.19994C10.4599 4.45994 11.1799 3.93994 12.0199 3.93994C12.8599 3.93994 13.5799 4.45994 13.8699 5.19994Z" stroke="white" stroke-width="1.5" stroke-miterlimit="10" stroke-linecap="round" stroke-linejoin="round"/>
<path d="M15.0195 21.0601C15.0195 22.7101 13.6695 24.0601 12.0195 24.0601C11.1995 24.0601 10.4395 23.7201 9.89953 23.1801C9.35953 22.6401 9.01953 21.8801 9.01953 21.0601" stroke="white" stroke-width="1.2" stroke-miterlimit="10"/>
<circle cx="20" cy="6" r="6" fill="#E83F5D"/>
<path d="M18.7039 9.5V8.74085H19.7039V3.60423L18.7136 4.20563L18.5 3.49577L20.1796 2.5H20.4709V8.74085H21.5V9.5H18.7039Z" fill="white"/>
</svg>
