<svg width="26" height="26" viewBox="0 0 26 26" fill="none" xmlns="http://www.w3.org/2000/svg">
<path d="M17 22.5H7C4 22.5 2 21 2 17.5V10.5C2 7 4 5.5 7 5.5H17C20 5.5 22 7 22 10.5V17.5C22 21 20 22.5 17 22.5Z" stroke="white" stroke-width="1.2" stroke-miterlimit="10" stroke-linecap="round" stroke-linejoin="round"/>
<path d="M17 11L13.87 13.5C12.84 14.32 11.15 14.32 10.12 13.5L7 11" stroke="white" stroke-width="1.2" stroke-miterlimit="10" stroke-linecap="round" stroke-linejoin="round"/>
<circle cx="20" cy="6" r="6" fill="#E83F5D"/>
<path d="M18.7039 9.5V8.74085H19.7039V3.60423L18.7136 4.20563L18.5 3.49577L20.1796 2.5H20.4709V8.74085H21.5V9.5H18.7039Z" fill="white"/>
</svg>
