<svg width="175px" height="175px" viewBox="-3.2 -3.2 22.40 22.40" xmlns="http://www.w3.org/2000/svg" fill="#000000" class="bi bi-three-dots-vertical" stroke="#000000" stroke-width="0.00016" transform="matrix(-1, 0, 0, 1, 0, 0)rotate(0)"><g id="SVGRepo_bgCarrier" stroke-width="0" transform="translate(1.5999999999999996,1.5999999999999996), scale(0.8)"><rect x="-3.2" y="-3.2" width="22.40" height="22.40" rx="5.3759999999999994" fill="#ffffff" strokewidth="0"></rect></g><g id="SVGRepo_tracerCarrier" stroke-linecap="round" stroke-linejoin="round" stroke="#CCCCCC" stroke-width="0.22400000000000003"></g><g id="SVGRepo_iconCarrier"> <path d="M9.5 13a1.5 1.5 0 1 1-3 0 1.5 1.5 0 0 1 3 0zm0-5a1.5 1.5 0 1 1-3 0 1.5 1.5 0 0 1 3 0zm0-5a1.5 1.5 0 1 1-3 0 1.5 1.5 0 0 1 3 0z"></path> </g></svg>